<svg width="512" height="533" viewBox="0 0 512 533" fill="none" xmlns="http://www.w3.org/2000/svg">
<path d="M232.534 532.394C208.244 529.79 188.229 524.582 167.78 515.715C110.276 490.666 61.6328 443.234 30.5879 381.789C24.949 370.691 18.9383 357.112 16.026 349.052C14.167 343.905 14.105 343.347 15.2204 343.347C15.5922 343.347 17.3272 345.951 19.0003 349.114C20.6114 352.214 24.7631 359.282 28.1712 364.738C54.9405 407.892 95.8998 445.714 139.772 467.725L145.349 470.577L144.915 468.159C143.056 457.805 142.684 454.395 142.746 448.256L142.808 441.25L135.434 433.686C109.16 406.714 91.5622 372.985 83.8785 334.543C80.8422 319.538 80.4084 315.012 80.4084 297.775C80.4084 284.073 80.6563 280.29 81.8336 272.664C84.808 253.815 89.7652 237.88 98.0067 220.83C103.46 209.669 107.116 203.531 114.552 193.548C123.846 181.086 131.406 173.335 147.703 159.695L150.43 157.401H142.374C124.156 157.277 111.515 152.689 100.671 142.21C92.5537 134.398 88.7738 126.647 87.4725 115.239C85.7374 99.552 92.1199 81.6332 105.009 66.3185C107.24 63.6524 108.665 62.4743 109.656 62.4743C110.462 62.4743 111.081 62.6603 111.081 62.8463C111.081 63.0323 110.152 64.7684 109.037 66.6905C103.274 76.673 100.547 86.1594 100.547 96.2659C100.547 106 103.336 113.255 109.47 119.703C112.383 122.741 117.526 126.337 118.951 126.337C119.385 126.337 118.331 124.539 116.658 122.307C112.878 117.347 111.701 113.503 111.763 106.558C111.763 99.8001 113.312 94.4678 115.295 94.2198C116.534 94.0338 116.658 94.2818 116.658 96.8239C116.658 104.078 121.244 111.829 127.255 114.929C131.468 117.037 139.462 118.091 143.613 117.037C152.537 114.805 161.398 109.038 175.464 96.3279C181.165 91.1817 187.981 85.2914 190.646 83.2453C193.31 81.1992 196.966 78.409 198.701 76.983C202.543 73.9448 212.395 67.7446 214.874 66.8145C215.928 66.4425 217.167 65.7605 217.663 65.2644C218.468 64.5824 222.868 62.5983 234.393 57.8241C237.616 56.46 242.139 54.972 251.744 52.0578C253.975 51.3758 258.56 50.1977 261.968 49.4537L268.165 48.0276L272.998 50.0737C280.682 53.2359 288.489 58.7541 295.43 65.8225C300.759 71.2167 307.327 79.5871 306.707 80.2071C306.583 80.3312 303.919 79.8351 300.697 79.2151C293.509 77.727 282.541 77.603 270.024 78.9051C260.791 79.8351 260.605 79.8971 253.913 81.7572C251.558 82.4392 248.46 83.3073 247.096 83.7413C245.733 84.1133 243.688 84.9194 242.573 85.5394C241.457 86.1594 240.156 86.6554 239.598 86.6554C238.483 86.6554 228.878 91.3677 227.515 92.6077C227.019 93.1037 226.276 93.4758 225.904 93.4758C225.532 93.4758 224.293 94.2198 223.054 95.2118C221.814 96.1419 219.46 97.6919 217.848 98.746C214.069 101.04 205.145 108.604 201.861 112.139C200.436 113.627 196.594 118.339 193.248 122.617C189.84 126.895 185.193 132.538 182.776 135.204C180.421 137.87 178.624 140.226 178.872 140.412C179.058 140.66 179.244 140.536 179.244 140.226C179.244 139.916 179.74 139.606 180.359 139.544C180.917 139.544 184.077 138.304 187.299 136.878C198.639 131.856 213.945 127.391 226.957 125.407C236.252 123.981 256.391 123.485 264.447 124.477C268.041 124.911 271.139 125.159 271.263 124.973C271.759 124.539 258.87 114.619 253.293 111.147C250.69 109.535 246.291 107.426 243.502 106.434C238.855 104.822 237.616 104.636 229.746 104.636L221.071 104.574L223.549 102.466C226.834 99.676 239.536 93.3518 246.477 91.0576C259.675 86.7794 279.009 84.4853 289.791 85.9734C299.891 87.3995 300.511 88.0815 292.641 89.1356C285.391 90.0656 283.284 90.8716 280.31 93.8478C277.583 96.5759 277.583 96.5759 277.955 100.172C278.451 105.814 281.363 111.271 288.675 120.137C294.934 127.701 302.37 133.344 318.667 142.768C331.618 150.27 335.088 153.061 337.318 157.959C344.507 173.211 345.932 175.444 345.932 171.165C345.932 165.895 343.515 151.262 340.293 137.188C334.592 112.511 324.058 88.3915 311.851 72.0848C306.769 65.3264 296.545 55.344 289.853 50.5698C282.541 45.4235 271.573 39.8433 262.96 37.0531C252.797 33.705 251.248 33.767 243.069 37.7352C236.5 40.9593 235.819 41.2693 231.915 42.6334C230.737 43.0674 228.94 43.7494 227.887 44.1835C226.895 44.6795 225.222 45.1755 224.169 45.4235C223.178 45.6715 221.752 46.0436 221.071 46.3536C220.389 46.6016 218.84 47.1596 217.663 47.5936C216.485 48.0276 214.316 48.8957 212.891 49.5157C211.404 50.1978 209.793 50.6938 209.235 50.6938C207.686 50.6938 196.098 55.592 186.866 60.1802C184.077 61.6063 181.598 62.5363 181.351 62.2883C180.545 61.5443 189.406 51.0038 199.631 40.6493L205.579 34.573H201.551C193.31 34.635 173.357 39.6573 166.975 43.3154C165.859 43.9355 164.558 44.4935 164.124 44.4935C162.203 44.4935 147.827 52.1198 141.631 56.336C140.205 57.3281 138.904 58.1341 138.718 58.1341C137.541 58.1341 124.404 68.6746 117.216 75.4329L113.002 79.3391L113.684 76.983C115.109 71.7747 120.934 61.1723 126.449 53.7939C130.725 48.0276 138.966 39.4712 145.472 33.953C156.626 24.5906 174.163 14.4221 185.44 10.7639C187.299 10.1439 189.84 9.21384 191.017 8.65582C195.851 6.60972 204.836 4.25362 216.423 1.95951C222.992 0.719454 242.077 -0.334595 250.504 0.0994248C276.964 1.46349 302.618 13.492 319.596 32.5269C327.962 41.8894 333.786 51.5618 339.177 64.9544C341.904 71.7127 346.056 85.6634 347.171 91.6157C348.039 96.1419 349.65 111.457 349.65 115.053C349.65 118.773 350.145 118.091 351.385 112.573C353.058 105.256 352.872 87.5855 351.013 79.2771C349.03 70.4107 346.366 62.7223 342.524 54.6C340.727 50.8178 339.363 47.5316 339.611 47.3456C340.851 46.1056 348.286 48.1516 365.451 54.5379C375.18 58.1341 392.282 66.1945 399.594 70.5967C405.295 74.0689 406.286 74.9369 410.19 80.0831C415.953 87.6475 418.37 91.4917 422.707 100.234C426.549 107.798 430.639 118.649 430.019 119.331C429.771 119.517 429.276 119.393 428.842 119.083C427.479 117.967 416.697 112.139 409.137 108.356C398.417 103.024 388.192 98.87 377.844 95.6459C367 92.2357 362.724 91.6157 361.485 93.1037C360.927 93.7858 360.865 94.3438 361.299 94.8398C362.786 96.6999 366.442 106.124 367.868 111.829C370.098 120.819 370.966 129.127 370.532 137.436C369.913 148.534 367.31 157.339 361.981 166.577C360.68 168.933 359.564 170.917 359.564 171.103C359.564 171.289 360.865 171.785 362.415 172.157C370.284 174.141 377.906 179.722 382.677 186.976C389.308 196.897 390.361 209.979 385.342 219.9C384.412 221.636 383.979 223.062 384.351 223.062C385.342 223.062 396.806 213.079 401.453 208.181C409.509 199.563 415.829 190.138 419.113 181.83C420.724 177.676 421.406 176.56 422.336 176.56C423.389 176.56 422.397 186.79 420.662 193.424C418.803 200.803 415.271 208.429 410.748 215.001C408.889 217.73 407.65 220.086 407.959 220.334C408.765 220.83 423.141 206.197 427.231 200.679C435.039 190.138 439.19 180.838 442.412 166.639C443.838 160.377 444.086 158.083 444.086 148.038C444.148 136.506 443.776 133.158 441.297 123.237C434.791 96.6999 419.423 73.2628 395.504 53.2359C381.81 41.7654 369.045 33.705 347.109 22.7925C339.487 19.0103 333.167 15.7862 332.981 15.6621C332.857 15.4761 333.229 15.2281 333.786 14.9801C336.265 14.0501 358.821 22.8545 374.746 31.1009C387.821 37.7972 394.637 41.9514 404.613 49.2677C429.028 67.0625 446.936 87.2135 457.47 108.666C466.393 126.957 469.863 142.148 469.863 163.105C469.863 176.312 469.368 180.838 467.013 190.386C462.242 209.545 451.583 227.526 434.915 244.701C429.028 250.715 420.972 257.721 419.857 257.783C419.609 257.845 418.37 258.651 417.192 259.643C416.015 260.698 414.652 261.504 414.094 261.504C413.536 261.504 412.731 261.876 412.235 262.31C411.739 262.682 415.086 259.147 419.733 254.373C431.878 241.787 438.323 232.486 443.714 219.776C446.254 213.885 449.6 201.919 450.22 196.525C450.53 194.106 450.406 193.92 449.105 193.92C447.989 193.92 446.998 195.16 443.962 200.555C435.844 215.125 421.716 231.122 407.836 241.539C401.639 246.189 395.69 250.343 394.265 251.087C393.398 251.521 391.601 252.637 390.175 253.567C387.015 255.675 373.692 263.364 367.93 266.464C365.575 267.704 362.601 269.316 361.423 270.06C359.068 271.486 348.348 276.818 344.383 278.554C343.019 279.174 340.355 280.538 338.496 281.592C336.637 282.709 333.601 284.135 331.866 284.879C330.068 285.623 327.342 287.049 325.855 288.103C324.306 289.157 322.695 290.025 322.261 290.025C321.827 290.025 320.774 290.583 319.906 291.265C319.039 291.947 318.109 292.505 317.799 292.505C317.489 292.505 315.816 293.435 314.081 294.613C312.346 295.729 309.682 297.341 308.133 298.209C296.111 304.906 280.31 319.042 277.026 325.987C273.556 333.427 273.308 339.503 276.22 346.696C277.026 348.742 277.645 350.54 277.46 350.664C276.902 351.222 270.272 346.137 266.554 342.293C261.844 337.395 259.613 333.179 258.126 326.483C257.197 322.018 257.197 321.336 258.126 316.562C258.746 313.276 260.109 309.494 261.782 306.208C267.049 295.791 281.116 283.391 299.148 273.284C301.192 272.168 303.733 270.742 304.724 270.184C305.778 269.626 309.124 267.828 312.16 266.154C338.682 251.955 352.996 241.663 360.804 231.122C366.009 224.116 367.248 220.706 367.248 213.451C367.31 206.507 366.442 204.027 362.539 200.307C358.139 196.028 346.613 192.742 345.56 195.408C345.312 195.966 345.56 196.897 346.118 197.517C347.543 199.129 351.323 206.879 352.128 209.979C353.739 216.055 352.748 222.69 349.34 228.828C346.675 233.602 346.242 233.602 344.692 228.89C337.628 207.747 326.97 192.432 310.983 180.466C298.528 171.165 281.363 164.469 266.677 163.229C261.658 162.733 261.596 162.733 262.712 161.555C263.827 160.501 265.004 160.377 275.663 160.253C285.081 160.129 288.366 160.377 292.331 161.245C307.885 164.779 320.96 171.289 331.927 180.9C335.893 184.372 337.442 184.62 337.752 181.892C338.186 178.172 324.244 166.639 311.789 160.377C304.725 156.781 299.519 155.107 289.047 153.061C279.876 151.2 260.357 153.123 248.212 157.091C245.423 157.959 238.855 161.307 237.863 162.361C237.492 162.671 236.686 162.919 236.066 162.919C235.075 162.919 231.357 164.531 227.577 166.701C227.081 166.949 225.408 167.817 223.859 168.561C222.31 169.367 220.203 170.607 219.15 171.413C218.096 172.219 216.981 172.839 216.671 172.839C216.175 172.839 208.554 176.56 204.34 178.854C203.658 179.226 202.295 179.908 201.242 180.342C200.25 180.776 198.701 181.644 197.896 182.264C197.09 182.884 195.913 183.38 195.293 183.38C194.673 183.38 192.381 184.248 190.274 185.24C188.167 186.294 186.184 187.1 185.874 187.1C185.564 187.1 184.635 187.658 183.767 188.34C182.9 189.022 181.722 189.58 181.227 189.58C180.731 189.58 178.872 190.634 177.137 191.998C175.402 193.3 173.233 194.602 172.428 194.85C171.56 195.098 170.445 195.656 169.949 196.028C169.453 196.401 168.028 197.269 166.851 197.889C160.654 201.299 147.517 212.893 141.693 220.21C133.761 230.068 127.255 241.539 123.165 252.699C121.925 256.171 120.686 259.023 120.5 259.023C119.881 259.023 120.996 243.213 121.925 238.872C123.103 233.416 125.581 225.728 127.874 220.768L129.609 216.861H127.812C125.705 216.861 123.475 219.28 118.765 226.534C109.966 240.175 103.955 256.233 101.043 273.594C100.547 276.818 100.237 283.825 100.299 293.435C100.299 309.68 100.857 313.958 104.265 326.173C106.806 335.225 113.436 350.664 116.349 354.198L117.34 355.438L117.03 354.198C113.312 338.325 112.631 332.807 112.755 318.856C112.94 303.542 113.808 297.279 115.791 296.969C117.03 296.783 117.154 297.155 117.526 302.239C119.199 323.01 124.156 341.983 132.522 359.778C134.814 364.614 141.755 376.767 145.163 381.851C161.026 405.412 188.91 428.725 215.432 440.506C227.825 446.024 227.515 445.714 221.319 445.342C208.306 444.474 187.919 437.654 174.844 429.779C172.923 428.601 170.816 427.671 170.135 427.671C167.099 427.671 163.505 434.12 160.654 444.722C158.113 453.96 158.299 469.275 161.026 475.723C161.769 477.522 162.451 477.894 171.312 480.87C196.78 489.426 215.432 492.464 242.139 492.464C256.887 492.464 259.799 492.278 266.925 490.976C286.383 487.504 300.387 482.358 316.188 472.809C323.81 468.221 327.9 465.121 333.972 459.231C341.904 451.604 345.994 445.218 349.34 435.422C351.571 428.787 352.19 417.937 350.641 410.372C350.083 407.582 349.774 405.04 349.96 404.73C351.199 402.684 353.925 405.35 357.767 412.419C359.812 416.139 360.122 415.147 358.325 410.372C354.979 401.692 349.402 393.26 341.842 385.757C332.795 376.643 321.207 369.017 304.415 360.894C299.148 358.352 293.88 355.81 292.703 355.252C289.109 353.454 284.71 349.052 283.098 345.517C280.806 340.805 280.868 335.969 283.284 330.699C285.701 325.305 294.438 316.066 297.041 316.066C298.466 316.066 298.838 316.376 298.838 317.306C298.838 320.778 302.742 324.809 313.648 332.621C323.996 340.061 334.53 348.68 341.842 355.748C359.626 372.923 368.487 388.113 373.197 409.504C374.312 414.403 374.56 417.689 374.622 426.121C374.684 442.304 372.205 452.782 364.769 467.663C359.378 478.452 354.111 485.83 344.073 496.122L335.707 504.803L340.541 501.393C343.205 499.533 346.056 497.673 346.861 497.238C350.951 495.068 363.778 481.428 368.859 473.863C377.534 460.905 383.111 444.474 383.111 431.887C383.111 428.725 383.235 428.415 386.271 425.501C388.007 423.765 392.096 419.363 395.442 415.581C427.045 379.805 443.776 343.037 447.865 300.441C448.299 296.101 449.477 294.737 450.282 297.651C451.274 301.247 452.017 316.004 451.645 325.677C450.468 356.616 444.643 381.479 432.126 409.07C421.406 432.631 406.906 453.588 386.767 474.421C377.844 483.66 374.87 486.264 362.477 495.75C359.688 497.858 356.404 500.401 355.165 501.393C353.925 502.447 351.819 503.873 350.517 504.555C349.216 505.299 347.791 506.167 347.357 506.539C346.985 506.849 345.188 507.903 343.329 508.833C341.532 509.763 338.124 511.623 335.707 512.925C328.829 516.707 328.271 516.955 327.838 516.955C327.59 516.955 325.483 517.823 323.19 518.877C320.836 519.932 317.923 521.172 316.622 521.668C315.383 522.102 313.4 522.846 312.284 523.342C305.654 526.132 290.472 529.914 276.84 532.146C270.705 533.138 240.962 533.324 232.534 532.394Z" fill="#AB2235"/>
<path d="M363.902 502.447C365.079 501.145 367.062 499.533 368.239 498.789C369.417 498.107 373.321 495.316 376.853 492.588C380.385 489.922 383.731 487.504 384.289 487.318C387.387 486.202 413.598 460.781 423.141 449.682C455.673 411.922 473.767 372.303 478.91 327.537C479.964 317.926 480.15 291.203 479.158 282.584C476.927 262.868 474.573 252.017 468.314 233.106L464.41 221.14L466.765 216.055C472.28 203.965 476.184 191.192 477.547 180.404C478.167 175.196 478.415 174.389 479.53 174.203C481.017 173.955 484.797 178.978 490.25 188.526C504.75 213.761 512 243.213 512 277.004C512 283.453 511.752 290.769 511.442 293.249C511.132 295.729 510.513 300.441 510.141 303.665C505.37 343.533 487.771 385.261 460.754 421.037C447.989 437.902 428.532 458.425 413.722 470.577C411.368 472.499 407.65 475.537 405.481 477.398C403.312 479.196 401.081 480.994 400.524 481.304C399.966 481.676 396.496 484.032 392.778 486.574C381.066 494.634 376.605 497.3 367 502.137C361.733 504.803 361.671 504.803 363.902 502.447Z" fill="#AB2235"/>
<path d="M229.126 483.784C211.218 481.304 192.071 474.483 173.977 464.067C166.913 460.037 166.851 459.975 166.851 453.588C166.851 447.946 167.904 441.684 169.763 435.732C170.754 432.818 171.126 432.321 172.552 432.135C173.915 431.949 175.34 432.88 179.678 436.662C192.257 447.512 209.669 457.247 224.293 461.463C235.757 464.811 238.793 465.183 253.913 465.183C267.545 465.183 268.475 465.121 274.857 463.447C282.913 461.339 285.205 460.471 294.5 455.883C302.246 452.1 306.398 449.496 312.16 444.784C319.534 438.77 327.404 429.531 331.432 422.277C332.547 420.231 333.662 418.991 334.344 418.991C335.645 418.991 335.645 418.619 334.096 423.703C332.299 429.593 327.838 438.77 323.748 444.97C316.87 455.449 301.13 469.833 292.207 473.801C290.101 474.793 287.87 476.095 287.312 476.716C286.754 477.398 285.701 477.894 285.019 477.894C284.4 477.894 282.975 478.266 281.921 478.762C280.806 479.196 278.699 479.94 277.15 480.374C274.237 481.18 272.007 481.986 270.086 482.978C266.739 484.714 239.722 485.272 229.126 483.784Z" fill="#AB2235"/>
<path d="M111.329 427.609C51.0986 393.012 13.4854 344.587 2.64134 287.545C-0.890707 269.006 -0.890708 239.741 2.70331 218.102C6.60715 193.982 15.4063 167.693 27.6755 143.388C46.699 105.752 72.1669 75.8049 108.231 48.5857C117.402 41.7033 118.146 41.2693 119.881 41.5173C120.934 41.6413 118.889 43.8734 109.594 52.5538C85.7994 74.7509 68.1392 98.498 54.0729 127.267C42.5473 150.89 35.9789 173.335 32.9426 199.811C32.0751 207.127 31.8272 229.572 32.5088 240.113C33.8721 262.434 40.1926 288.475 49.7353 311.168C57.667 329.955 68.9447 349.3 81.4618 365.854C83.5067 368.458 85.6135 372.117 86.2332 373.915C88.7738 381.169 96.0238 395.864 102.22 406.156C106 412.543 113.436 422.897 117.65 427.733C122.173 432.879 122.483 433.251 121.802 433.251C121.492 433.251 116.782 430.709 111.329 427.609Z" fill="#AB2235"/>
<path d="M177.385 405.164C175.526 403.676 171.684 400.018 168.834 396.98L163.752 391.524L164.806 389.911C169.081 383.277 179.863 371.559 189.158 363.498C194.983 358.414 204.092 351.594 205.889 350.912C206.385 350.726 207.934 349.796 209.359 348.866C217.477 343.347 245.299 330.947 249.513 330.947C249.947 330.947 251.124 332.807 252.054 335.101C253.045 337.333 255.462 341.363 257.383 344.029C262.712 351.222 269.032 355.934 277.645 359.158C282.355 361.018 282.665 361.204 281.673 362.072C281.054 362.63 279.38 363.374 277.955 363.746C276.53 364.18 275.167 364.738 274.981 365.048C274.795 365.42 273.866 365.668 272.998 365.668C271.387 365.668 267.359 366.598 265.066 367.528C264.385 367.838 262.712 368.211 261.348 368.459C254.594 369.637 252.983 369.947 248.955 370.939C246.601 371.559 244.06 372.241 243.378 372.551C242.697 372.799 240.466 373.543 238.421 374.225C233.526 375.899 230.861 376.829 228.197 377.883C227.019 378.379 225.47 378.999 224.789 379.247C220.451 380.983 215.989 383.153 211.156 385.943C209.793 386.687 208.244 387.555 207.748 387.803C204.34 389.353 192.814 397.786 187.857 402.374C184.573 405.35 181.66 407.83 181.351 407.83C181.041 407.83 179.244 406.652 177.385 405.164Z" fill="#AB2235"/>
<path d="M178.5 347.192C168.71 338.759 162.823 332.063 155.821 321.646C150.802 314.082 142.684 298.395 142.684 296.163C142.684 294.303 145.039 296.473 149.686 302.611C161.893 318.732 180.173 332.373 198.019 338.697C200.622 339.627 202.791 340.557 202.791 340.743C202.791 341.425 199.445 344.587 198.763 344.587C198.329 344.587 196.842 345.455 195.479 346.448C194.054 347.502 192.69 348.308 192.504 348.308C192.257 348.308 191.017 349.3 189.716 350.478C188.353 351.656 186.742 352.648 186.06 352.648C185.378 352.648 181.97 350.168 178.5 347.192Z" fill="#AB2235"/>
<path d="M327.218 332.931C322.88 329.583 319.162 326.669 318.915 326.421C318.667 326.173 320.898 323.568 323.81 320.716C331.184 313.524 336.203 306.58 340.169 298.085C342.028 294.179 344.011 290.025 344.568 288.847C345.498 286.925 347.295 285.809 360.494 279.112C373.63 272.354 378.774 270.37 378.774 271.92C378.774 272.168 378.34 274.152 377.782 276.384C374.374 291.079 368.549 303.541 359.378 315.88C353.182 324.25 338.558 339.007 336.575 338.945C335.707 338.945 331.927 336.527 327.218 332.931Z" fill="#AB2235"/>
<path d="M200.436 330.947C194.859 328.653 191.947 327.041 183.643 321.398C160.84 306.022 146.526 281.84 142.312 251.707C140.763 240.175 141.321 238.19 149.19 227.712C157.494 216.613 177.633 199.501 182.342 199.501H184.139L180.979 204.647C169.081 223.806 164.186 245.569 167.16 266.402C169.825 285.313 175.774 299.449 186.99 313.896C190.831 318.794 198.887 326.917 203.72 330.761C206.819 333.241 206.199 333.241 200.436 330.947Z" fill="#AB2235"/>
<path d="M429.152 171.661C420.043 155.107 405.419 136.072 390.423 121.253C384.908 115.797 381.376 111.829 381.624 111.395C383.421 108.418 407.898 118.525 426.673 129.871C430.329 132.104 433.489 134.15 433.675 134.46C433.799 134.708 434.295 137.436 434.667 140.412C435.224 144.504 435.162 147.79 434.605 153.867C433.861 161.927 431.878 172.033 430.825 173.087C430.515 173.397 429.833 172.839 429.152 171.661Z" fill="#AB2235"/>
<path d="M489.692 168.685C488.515 167.073 485.541 163.415 483.062 160.625C480.15 157.277 478.477 154.735 478.229 153.433C477.671 150.084 476.68 142.83 476.68 141.714C476.68 138.738 478.786 141.28 482.504 148.658C486.532 156.471 492.481 170.855 491.985 171.351C491.861 171.475 490.808 170.297 489.692 168.685Z" fill="#AB2235"/>
<path d="M205.022 62.0403C205.269 60.0562 205.579 58.2581 205.827 58.0101C206.075 57.7621 209.173 57.3281 212.705 57.1421L219.212 56.7081L217.415 58.6302C216.423 59.6842 214.193 61.2963 212.396 62.1643C210.599 63.0324 208.801 64.1484 208.368 64.6444C207.934 65.1405 206.943 65.5745 206.137 65.5745C204.712 65.5745 204.65 65.4505 205.022 62.0403Z" fill="#AB2235"/>
<path d="M239.57 156.653C239.925 156.892 240.161 157.271 240.219 157.695L247.716 212.521V157.62C247.716 157.24 247.86 156.874 248.12 156.596L301.007 99.986L242.905 148.025C242.441 148.409 241.792 148.478 241.257 148.2L178.314 115.487L239.57 156.653Z" fill="#58666E"/>
<path d="M180.569 173.215C180.716 173.376 180.827 173.567 180.893 173.775L194.116 215.311L189.961 177.604C189.863 176.716 190.559 175.94 191.452 175.94H228.197L186.788 170.722C186.514 170.688 186.256 170.579 186.041 170.407L156.007 146.488L180.569 173.215Z" fill="#58666E"/>
<path d="M245.656 238.224C245.984 238.441 246.213 238.778 246.295 239.162L255.152 280.724L251.482 236.359C251.451 235.982 251.564 235.607 251.797 235.309L279.628 199.811L248.439 232.836C248.005 233.296 247.33 233.434 246.75 233.181L221.381 222.132L245.656 238.224Z" fill="#58666E"/>
<path d="M279.628 165.709L294.45 182.053C294.683 182.31 294.82 182.639 294.837 182.984L297.908 242.903L300.982 182.938C300.998 182.621 301.114 182.317 301.314 182.07L324.863 152.998L298.783 177.295C298.271 177.771 297.498 177.831 296.919 177.438L279.628 165.709Z" fill="#58666E"/>
<path d="M324.11 116.914C324.576 117.182 324.863 117.678 324.863 118.215V152.998L331.893 117.83C331.956 117.516 332.117 117.231 332.354 117.015L359.564 92.2357L328.18 110.834C327.842 111.034 327.438 111.094 327.056 110.999L303.795 105.256L324.11 116.914Z" fill="#58666E"/>
<path d="M226.057 290.941C226.241 291.153 226.361 291.412 226.405 291.688L240.128 378.069L233.542 292.283C233.495 291.669 233.828 291.088 234.382 290.819L255.152 280.724L221.381 255.613L200.002 260.883L226.057 290.941Z" fill="#58666E"/>
<path d="M226.057 290.941C226.241 291.153 226.361 291.412 226.405 291.688L240.128 378.069L233.542 292.283C233.495 291.669 233.828 291.088 234.382 290.819L255.152 280.724L221.381 255.613L200.002 260.883L226.057 290.941Z" fill="#48535A"/>
<path d="M247.716 212.521L221.381 222.132L246.75 233.181C247.33 233.434 248.005 233.296 248.439 232.836L279.628 199.811L247.716 212.521Z" fill="#48535A"/>
<path d="M301.007 141.218L279.628 165.709L296.919 177.438C297.498 177.831 298.271 177.771 298.783 177.295L324.863 152.998L301.007 141.218Z" fill="#58666E"/>
<path d="M359.564 92.2357L336.947 75.4949L303.795 105.256L327.056 110.999C327.438 111.094 327.842 111.034 328.18 110.834L359.564 92.2357Z" fill="#48535A"/>
<path d="M166.231 136.258L156.007 146.488L186.041 170.407C186.256 170.579 186.514 170.688 186.788 170.722L228.197 175.94L173.44 136.54C173.185 136.357 172.878 136.258 172.564 136.258H166.231Z" fill="#48535A"/>
<path d="M258.25 513.235L277.847 433.872L269.094 388.919L258.25 513.235Z" fill="#58666E"/>
<path d="M215.804 359.468L221.336 412.055C221.365 412.333 221.472 412.598 221.643 412.818L230.056 423.641L240.128 405.35V378.069L226.405 291.688C226.361 291.412 226.241 291.153 226.057 290.941L200.002 260.883L215.804 359.468Z" fill="#58666E"/>
<path d="M215.804 359.468L221.336 412.055C221.365 412.333 221.472 412.598 221.643 412.818L230.056 423.641L240.128 405.35V378.069L226.405 291.688C226.361 291.412 226.241 291.153 226.057 290.941L200.002 260.883L215.804 359.468Z" fill="#1C242C"/>
<path d="M230.056 423.641L258.25 513.235L269.094 388.919L256.539 379.149C255.811 378.582 254.749 378.801 254.304 379.609L240.128 405.35L230.056 423.641Z" fill="#1C242C"/>
<path d="M310.585 301.293C310.602 301.221 310.615 301.149 310.622 301.075L314.949 255.613L284.586 280.724L279.628 199.811L251.797 235.309C251.564 235.607 251.451 235.982 251.482 236.359L255.152 280.724L234.382 290.819C233.828 291.088 233.495 291.669 233.542 292.283L240.128 378.069V405.35L254.304 379.609C254.749 378.801 255.811 378.582 256.539 379.149L269.094 388.919L277.847 433.872L310.585 301.293Z" fill="#2D383E"/>
<path d="M154.452 148.043C154.072 148.424 153.925 148.978 154.066 149.497L172.95 218.983C173.014 219.218 173.134 219.435 173.301 219.613L186.37 233.602L194.116 215.311L180.893 173.775C180.827 173.567 180.716 173.376 180.569 173.215L156.007 146.488L154.452 148.043Z" fill="#2D383E"/>
<path d="M314.949 255.613L331.558 240.505C331.836 240.252 332.008 239.906 332.043 239.532L336.9 186.675C336.93 186.347 337.067 186.039 337.29 185.797L350.864 171.034C351.081 170.797 351.217 170.497 351.251 170.177L359.564 92.2357L332.354 117.015C332.117 117.231 331.956 117.516 331.893 117.83L324.863 152.998L301.314 182.07C301.114 182.317 300.998 182.621 300.982 182.938L297.908 242.903L284.586 280.724L314.949 255.613Z" fill="#1C242C"/>
<path d="M186.37 233.602L199.935 344.351C199.979 344.704 200.146 345.03 200.407 345.271L215.804 359.468L200.002 260.883L221.381 255.613V222.132L247.716 212.521L228.197 175.94H191.452C190.559 175.94 189.863 176.716 189.961 177.604L194.116 215.311L186.37 233.602Z" fill="#202B31"/>
<path d="M221.381 255.613L255.152 280.724L246.295 239.162C246.213 238.778 245.984 238.441 245.656 238.224L221.381 222.132V255.613Z" fill="#172228"/>
<path d="M166.607 91.927C166.363 92.1276 166.188 92.4005 166.108 92.7065L161.361 110.813C161.304 111.033 161.297 111.262 161.34 111.484L166.231 136.258H172.564C172.878 136.258 173.185 136.357 173.44 136.54L228.197 175.94L247.716 212.521L240.219 157.695C240.161 157.271 239.925 156.892 239.57 156.653L178.314 115.487L170.768 88.5155L166.607 91.927Z" fill="#182228"/>
<path d="M279.628 165.709V199.811L284.586 280.724L297.908 242.903L294.837 182.984C294.82 182.639 294.683 182.31 294.45 182.053L279.628 165.709Z" fill="#192128"/>
<path d="M336.947 75.4949L331.989 47.9036L324.952 71.1715C324.894 71.365 324.797 71.5446 324.667 71.6997L301.007 99.986L248.12 156.596C247.86 156.874 247.716 157.24 247.716 157.62V212.521L279.628 199.811V165.709L301.007 141.218L303.795 105.256L336.947 75.4949Z" fill="#2D383E"/>
<path d="M303.795 105.256L301.007 141.218L324.863 152.998V118.215C324.863 117.678 324.576 117.182 324.11 116.914L303.795 105.256Z" fill="#172228"/>
<path d="M226.19 71.6059C226.85 70.3778 225.669 68.9241 224.351 69.3775L218.832 71.2755C218.478 71.3972 218.183 71.643 218.009 71.9741C210.313 86.5862 209.34 110.94 265.391 95.4178C265.579 95.3656 265.768 95.2718 265.923 95.1518C276.769 86.7158 284.329 81.2036 288.729 78.1311C289.929 77.2933 289.389 75.2874 287.93 75.1685C277.083 74.2845 262.159 72.1894 262.393 68.6753C262.421 68.261 262.815 67.9995 263.215 67.891C271.477 65.6549 282.494 59.4211 287.391 51.9808C287.763 51.4141 287.663 50.6659 287.159 50.2123C285.726 48.9233 284.292 47.9735 283.209 47.3631C282.462 46.9419 281.568 47.3442 281.219 48.1282C278.325 54.6361 270.026 63.7139 254.905 59.3344C253.614 58.9607 253.664 57.4789 254.984 57.2276C258.352 56.5859 263.167 55.9771 267.248 55.5315C268.725 55.3703 269.126 53.377 267.819 52.6708L258.456 47.612C257.578 47.1373 256.489 47.6374 256.277 48.6132L255.352 52.8719C255.23 53.4354 254.795 53.8789 254.234 54.0126L242.605 56.783C242.302 56.8552 242.02 57.0143 241.855 57.279C241.274 58.2134 241.017 59.7549 243.378 60.6142L249.017 63.3495C250.363 64.0026 250.028 66.008 248.542 66.1882L236.519 67.6465C235.226 67.8033 234.733 69.4193 235.718 70.2705L251.211 83.6582C252.168 84.4852 251.738 86.047 250.489 86.2494C241.688 87.6763 228.186 89.4346 226.648 87.8955C226.277 87.5247 225.753 87.2534 225.193 86.9642C222.701 85.6747 219.517 84.0278 226.19 71.6059Z" fill="#AB2235"/>
<path fill-rule="evenodd" clip-rule="evenodd" d="M331.989 47.9036L275.387 21.1246C275.122 20.9992 274.826 20.9542 274.536 20.9952L249.062 24.5937C248.789 24.6322 248.533 24.7448 248.32 24.9191L170.768 88.5155L178.314 115.487L241.257 148.2C241.792 148.478 242.441 148.409 242.905 148.025L301.007 99.986L324.667 71.6997C324.797 71.5446 324.894 71.365 324.952 71.1715L331.989 47.9036ZM226.19 71.6059C226.85 70.3778 225.669 68.9241 224.351 69.3775L218.832 71.2755C218.478 71.3972 218.183 71.643 218.009 71.9741C210.313 86.5862 209.34 110.94 265.391 95.4178C265.579 95.3656 265.768 95.2718 265.923 95.1518C276.769 86.7158 284.329 81.2036 288.729 78.1311C289.929 77.2933 289.389 75.2874 287.93 75.1685C277.083 74.2845 262.159 72.1894 262.393 68.6753C262.421 68.261 262.815 67.9995 263.215 67.891C271.477 65.6549 282.494 59.4211 287.391 51.9808C287.763 51.4141 287.663 50.6659 287.159 50.2123C285.726 48.9233 284.292 47.9735 283.209 47.3631C282.462 46.9419 281.568 47.3442 281.219 48.1282C278.325 54.6361 270.026 63.7139 254.905 59.3344C253.614 58.9607 253.664 57.4789 254.984 57.2276C258.352 56.5859 263.167 55.9771 267.248 55.5315C268.725 55.3703 269.126 53.377 267.819 52.6708L258.456 47.612C257.578 47.1373 256.489 47.6374 256.277 48.6132L255.352 52.8719C255.23 53.4354 254.795 53.8789 254.234 54.0126L242.605 56.783C242.302 56.8552 242.02 57.0143 241.855 57.279C241.274 58.2134 241.017 59.7549 243.378 60.6142L249.017 63.3495C250.363 64.0026 250.028 66.008 248.542 66.1882L236.519 67.6465C235.226 67.8033 234.733 69.4193 235.718 70.2705L251.211 83.6582C252.168 84.4852 251.738 86.047 250.489 86.2494C241.688 87.6763 228.186 89.4346 226.648 87.8955C226.277 87.5247 225.753 87.2534 225.193 86.9642C222.701 85.6747 219.517 84.0278 226.19 71.6059ZM296.192 51.2068C295.414 51.0894 294.687 51.6039 294.456 52.3556C292.508 58.675 287.041 62.7717 281.645 65.2179C280.079 65.9281 280.321 68.9701 282.041 68.9842C290.316 69.0521 294.784 66.7544 300.671 63.5848C300.89 63.4671 301.134 63.4052 301.382 63.4015C307.01 63.3172 315.133 61.3787 320.176 59.3187C321.282 58.867 321.261 57.4534 320.147 57.0219C315.934 55.3896 307.865 52.9691 296.192 51.2068Z" fill="#48535A"/>
<path d="M282.041 68.9842C280.321 68.9701 280.079 65.9281 281.645 65.2179C287.041 62.7717 292.508 58.675 294.456 52.3556C294.687 51.6039 295.414 51.0894 296.192 51.2068C307.865 52.9691 315.934 55.3896 320.147 57.0219C321.261 57.4534 321.282 58.867 320.176 59.3187C315.133 61.3787 307.01 63.3172 301.382 63.4015C301.134 63.4052 300.89 63.4671 300.671 63.5848C294.784 66.7544 290.316 69.0521 282.041 68.9842Z" fill="#AB2235"/>
<path d="M341.842 385.757C332.795 376.643 321.207 369.017 304.415 360.894C299.148 358.352 293.88 355.81 292.703 355.252C289.109 353.454 284.71 349.052 283.098 345.517C280.806 340.805 280.868 335.969 283.284 330.699C285.701 325.304 294.438 316.066 297.041 316.066C298.466 316.066 298.838 316.376 298.838 317.306C298.838 320.778 302.742 324.809 313.648 332.621C323.996 340.061 334.53 348.68 341.842 355.748V385.757Z" fill="#AB2235"/>
<path d="M390.175 253.567C387.015 255.675 373.692 263.364 367.93 266.464C365.575 267.704 362.6 269.316 361.423 270.06C359.068 271.486 348.348 276.818 344.383 278.554C343.019 279.174 340.355 280.538 338.496 281.592C336.637 282.709 333.601 284.135 331.865 284.879C330.068 285.623 327.342 287.049 325.855 288.103C324.306 289.157 322.695 290.025 322.261 290.025C321.827 290.025 320.774 290.583 319.906 291.265C319.039 291.947 318.109 292.505 317.799 292.505C317.489 292.505 315.816 293.435 314.081 294.613C312.346 295.729 309.682 297.341 308.133 298.209C296.111 304.906 280.31 319.042 277.026 325.987C273.556 333.427 273.308 339.503 276.22 346.696C277.026 348.742 277.645 350.54 277.46 350.664C276.902 351.222 270.272 346.137 266.554 342.293C261.844 337.395 259.613 333.179 258.126 326.483C257.197 322.018 257.197 321.336 258.126 316.562C258.746 313.276 260.109 309.494 261.782 306.208C267.049 295.791 281.116 283.391 299.148 273.284C301.192 272.168 303.733 270.742 304.724 270.184C305.778 269.626 309.124 267.828 312.16 266.154C338.682 251.955 352.996 241.663 360.803 231.122L390.175 253.567Z" fill="#AB2235"/>
</svg>
